<mxfile host="app.diagrams.net" modified="2024-06-10T08:55:05.943Z" agent="Mozilla/5.0 (Windows NT 10.0; Win64; x64) AppleWebKit/537.36 (KHTML, like Gecko) Chrome/125.0.0.0 Safari/537.36 Edg/125.0.0.0" etag="d8w9SnwWKzle3kD_wvt4" version="24.5.2" type="device">
  <diagram name="Page-1" id="XFzWJ1miwtP1qVg7RayT">
    <mxGraphModel dx="1386" dy="793" grid="1" gridSize="10" guides="1" tooltips="1" connect="1" arrows="1" fold="1" page="1" pageScale="1" pageWidth="827" pageHeight="1169" math="0" shadow="0">
      <root>
        <mxCell id="0" />
        <mxCell id="1" parent="0" />
        <mxCell id="kkkMn9H4NbqY7ewx2H_a-48" style="edgeStyle=orthogonalEdgeStyle;rounded=0;orthogonalLoop=1;jettySize=auto;html=1;entryX=0.5;entryY=0;entryDx=0;entryDy=0;" edge="1" parent="1" source="kkkMn9H4NbqY7ewx2H_a-4" target="kkkMn9H4NbqY7ewx2H_a-9">
          <mxGeometry relative="1" as="geometry" />
        </mxCell>
        <mxCell id="kkkMn9H4NbqY7ewx2H_a-50" style="edgeStyle=orthogonalEdgeStyle;rounded=0;orthogonalLoop=1;jettySize=auto;html=1;entryX=0;entryY=0.5;entryDx=0;entryDy=0;" edge="1" parent="1" source="kkkMn9H4NbqY7ewx2H_a-4" target="kkkMn9H4NbqY7ewx2H_a-26">
          <mxGeometry relative="1" as="geometry" />
        </mxCell>
        <mxCell id="kkkMn9H4NbqY7ewx2H_a-51" style="edgeStyle=orthogonalEdgeStyle;rounded=0;orthogonalLoop=1;jettySize=auto;html=1;exitX=1;exitY=0;exitDx=0;exitDy=0;" edge="1" parent="1" source="kkkMn9H4NbqY7ewx2H_a-4" target="kkkMn9H4NbqY7ewx2H_a-5">
          <mxGeometry relative="1" as="geometry" />
        </mxCell>
        <mxCell id="kkkMn9H4NbqY7ewx2H_a-53" style="edgeStyle=orthogonalEdgeStyle;rounded=0;orthogonalLoop=1;jettySize=auto;html=1;entryX=1;entryY=0.5;entryDx=0;entryDy=0;" edge="1" parent="1" source="kkkMn9H4NbqY7ewx2H_a-4" target="kkkMn9H4NbqY7ewx2H_a-7">
          <mxGeometry relative="1" as="geometry" />
        </mxCell>
        <mxCell id="kkkMn9H4NbqY7ewx2H_a-54" style="edgeStyle=orthogonalEdgeStyle;rounded=0;orthogonalLoop=1;jettySize=auto;html=1;exitX=0;exitY=1;exitDx=0;exitDy=0;entryX=1;entryY=0.5;entryDx=0;entryDy=0;" edge="1" parent="1" source="kkkMn9H4NbqY7ewx2H_a-4" target="kkkMn9H4NbqY7ewx2H_a-8">
          <mxGeometry relative="1" as="geometry" />
        </mxCell>
        <mxCell id="kkkMn9H4NbqY7ewx2H_a-61" style="edgeStyle=orthogonalEdgeStyle;rounded=0;orthogonalLoop=1;jettySize=auto;html=1;exitX=0;exitY=0;exitDx=0;exitDy=0;entryX=0.5;entryY=1;entryDx=0;entryDy=0;" edge="1" parent="1" source="kkkMn9H4NbqY7ewx2H_a-4" target="kkkMn9H4NbqY7ewx2H_a-20">
          <mxGeometry relative="1" as="geometry" />
        </mxCell>
        <mxCell id="kkkMn9H4NbqY7ewx2H_a-66" style="edgeStyle=orthogonalEdgeStyle;rounded=0;orthogonalLoop=1;jettySize=auto;html=1;exitX=1;exitY=1;exitDx=0;exitDy=0;entryX=0;entryY=0.5;entryDx=0;entryDy=0;" edge="1" parent="1" source="kkkMn9H4NbqY7ewx2H_a-4" target="kkkMn9H4NbqY7ewx2H_a-6">
          <mxGeometry relative="1" as="geometry">
            <Array as="points">
              <mxPoint x="472" y="510" />
            </Array>
          </mxGeometry>
        </mxCell>
        <mxCell id="kkkMn9H4NbqY7ewx2H_a-4" value="&lt;b&gt;Manip:&lt;/b&gt;&lt;div&gt;&lt;b&gt;Montrer la validité du modèle choisi via la commande d&#39;un véhicule miniature bimoteur&lt;/b&gt;&lt;/div&gt;" style="ellipse;whiteSpace=wrap;html=1;fillColor=#f8cecc;strokeColor=#b85450;" vertex="1" parent="1">
          <mxGeometry x="310" y="380" width="190" height="110" as="geometry" />
        </mxCell>
        <mxCell id="kkkMn9H4NbqY7ewx2H_a-33" style="edgeStyle=orthogonalEdgeStyle;rounded=0;orthogonalLoop=1;jettySize=auto;html=1;entryX=0;entryY=0.5;entryDx=0;entryDy=0;" edge="1" parent="1" source="kkkMn9H4NbqY7ewx2H_a-5" target="kkkMn9H4NbqY7ewx2H_a-17">
          <mxGeometry relative="1" as="geometry" />
        </mxCell>
        <mxCell id="kkkMn9H4NbqY7ewx2H_a-60" style="edgeStyle=orthogonalEdgeStyle;rounded=0;orthogonalLoop=1;jettySize=auto;html=1;exitX=0.5;exitY=0;exitDx=0;exitDy=0;entryX=0.5;entryY=1;entryDx=0;entryDy=0;" edge="1" parent="1" source="kkkMn9H4NbqY7ewx2H_a-5" target="kkkMn9H4NbqY7ewx2H_a-16">
          <mxGeometry relative="1" as="geometry" />
        </mxCell>
        <mxCell id="kkkMn9H4NbqY7ewx2H_a-5" value="&lt;font style=&quot;font-size: 11px;&quot;&gt;Pouvoir commander la voiture à distance&lt;/font&gt;" style="ellipse;whiteSpace=wrap;html=1;fillColor=#dae8fc;strokeColor=#6c8ebf;" vertex="1" parent="1">
          <mxGeometry x="410" y="257.5" width="130" height="80" as="geometry" />
        </mxCell>
        <mxCell id="kkkMn9H4NbqY7ewx2H_a-38" style="edgeStyle=orthogonalEdgeStyle;rounded=0;orthogonalLoop=1;jettySize=auto;html=1;entryX=0.5;entryY=0;entryDx=0;entryDy=0;" edge="1" parent="1" source="kkkMn9H4NbqY7ewx2H_a-6" target="kkkMn9H4NbqY7ewx2H_a-15">
          <mxGeometry relative="1" as="geometry" />
        </mxCell>
        <mxCell id="kkkMn9H4NbqY7ewx2H_a-65" style="edgeStyle=orthogonalEdgeStyle;rounded=0;orthogonalLoop=1;jettySize=auto;html=1;entryX=0;entryY=0.5;entryDx=0;entryDy=0;" edge="1" parent="1" source="kkkMn9H4NbqY7ewx2H_a-6" target="kkkMn9H4NbqY7ewx2H_a-14">
          <mxGeometry relative="1" as="geometry" />
        </mxCell>
        <mxCell id="kkkMn9H4NbqY7ewx2H_a-6" value="&lt;font style=&quot;font-size: 11px;&quot;&gt;Pouvoir connaître les grandeurs nécessaires à la validation du modèle&lt;/font&gt;" style="ellipse;whiteSpace=wrap;html=1;fillColor=#dae8fc;strokeColor=#6c8ebf;" vertex="1" parent="1">
          <mxGeometry x="530" y="470" width="130" height="80" as="geometry" />
        </mxCell>
        <mxCell id="kkkMn9H4NbqY7ewx2H_a-44" style="edgeStyle=orthogonalEdgeStyle;rounded=0;orthogonalLoop=1;jettySize=auto;html=1;entryX=0.5;entryY=1;entryDx=0;entryDy=0;" edge="1" parent="1" source="kkkMn9H4NbqY7ewx2H_a-7" target="kkkMn9H4NbqY7ewx2H_a-22">
          <mxGeometry relative="1" as="geometry" />
        </mxCell>
        <mxCell id="kkkMn9H4NbqY7ewx2H_a-64" style="edgeStyle=orthogonalEdgeStyle;rounded=0;orthogonalLoop=1;jettySize=auto;html=1;entryX=1;entryY=0.5;entryDx=0;entryDy=0;" edge="1" parent="1" source="kkkMn9H4NbqY7ewx2H_a-7" target="kkkMn9H4NbqY7ewx2H_a-18">
          <mxGeometry relative="1" as="geometry" />
        </mxCell>
        <mxCell id="kkkMn9H4NbqY7ewx2H_a-7" value="&lt;font style=&quot;font-size: 11px;&quot;&gt;Calculer la consigne à appliquer aux moteurs&amp;nbsp;&lt;/font&gt;" style="ellipse;whiteSpace=wrap;html=1;fillColor=#dae8fc;strokeColor=#6c8ebf;" vertex="1" parent="1">
          <mxGeometry x="140" y="345" width="130" height="80" as="geometry" />
        </mxCell>
        <mxCell id="kkkMn9H4NbqY7ewx2H_a-47" style="edgeStyle=orthogonalEdgeStyle;rounded=0;orthogonalLoop=1;jettySize=auto;html=1;entryX=0.5;entryY=0;entryDx=0;entryDy=0;" edge="1" parent="1" source="kkkMn9H4NbqY7ewx2H_a-8" target="kkkMn9H4NbqY7ewx2H_a-13">
          <mxGeometry relative="1" as="geometry" />
        </mxCell>
        <mxCell id="kkkMn9H4NbqY7ewx2H_a-62" style="edgeStyle=orthogonalEdgeStyle;rounded=0;orthogonalLoop=1;jettySize=auto;html=1;exitX=0;exitY=0.5;exitDx=0;exitDy=0;entryX=1;entryY=0.5;entryDx=0;entryDy=0;" edge="1" parent="1" source="kkkMn9H4NbqY7ewx2H_a-8" target="kkkMn9H4NbqY7ewx2H_a-12">
          <mxGeometry relative="1" as="geometry" />
        </mxCell>
        <mxCell id="kkkMn9H4NbqY7ewx2H_a-8" value="&lt;font style=&quot;font-size: 11px;&quot;&gt;Assurer l&#39;alimentation des éléments consommateurs&lt;/font&gt;" style="ellipse;whiteSpace=wrap;html=1;fillColor=#dae8fc;strokeColor=#6c8ebf;" vertex="1" parent="1">
          <mxGeometry x="140" y="470" width="130" height="80" as="geometry" />
        </mxCell>
        <mxCell id="kkkMn9H4NbqY7ewx2H_a-40" style="edgeStyle=orthogonalEdgeStyle;rounded=0;orthogonalLoop=1;jettySize=auto;html=1;entryX=0.5;entryY=0;entryDx=0;entryDy=0;" edge="1" parent="1" source="kkkMn9H4NbqY7ewx2H_a-9" target="kkkMn9H4NbqY7ewx2H_a-10">
          <mxGeometry relative="1" as="geometry" />
        </mxCell>
        <mxCell id="kkkMn9H4NbqY7ewx2H_a-41" style="edgeStyle=orthogonalEdgeStyle;rounded=0;orthogonalLoop=1;jettySize=auto;html=1;" edge="1" parent="1" source="kkkMn9H4NbqY7ewx2H_a-9" target="kkkMn9H4NbqY7ewx2H_a-11">
          <mxGeometry relative="1" as="geometry" />
        </mxCell>
        <mxCell id="kkkMn9H4NbqY7ewx2H_a-42" style="edgeStyle=orthogonalEdgeStyle;rounded=0;orthogonalLoop=1;jettySize=auto;html=1;entryX=0.5;entryY=0;entryDx=0;entryDy=0;" edge="1" parent="1" source="kkkMn9H4NbqY7ewx2H_a-9" target="kkkMn9H4NbqY7ewx2H_a-24">
          <mxGeometry relative="1" as="geometry" />
        </mxCell>
        <mxCell id="kkkMn9H4NbqY7ewx2H_a-43" style="edgeStyle=orthogonalEdgeStyle;rounded=0;orthogonalLoop=1;jettySize=auto;html=1;" edge="1" parent="1" source="kkkMn9H4NbqY7ewx2H_a-9" target="kkkMn9H4NbqY7ewx2H_a-25">
          <mxGeometry relative="1" as="geometry" />
        </mxCell>
        <mxCell id="kkkMn9H4NbqY7ewx2H_a-9" value="&lt;span style=&quot;font-size: 11px;&quot;&gt;Rendre compte des comportements réels de la voiture&lt;/span&gt;" style="ellipse;whiteSpace=wrap;html=1;fillColor=#dae8fc;strokeColor=#6c8ebf;" vertex="1" parent="1">
          <mxGeometry x="340" y="545" width="130" height="80" as="geometry" />
        </mxCell>
        <mxCell id="kkkMn9H4NbqY7ewx2H_a-10" value="Suspensions" style="whiteSpace=wrap;html=1;" vertex="1" parent="1">
          <mxGeometry x="490" y="640" width="70" height="30" as="geometry" />
        </mxCell>
        <mxCell id="kkkMn9H4NbqY7ewx2H_a-11" value="Contact au sol" style="whiteSpace=wrap;html=1;" vertex="1" parent="1">
          <mxGeometry x="250" y="640" width="70" height="30" as="geometry" />
        </mxCell>
        <mxCell id="kkkMn9H4NbqY7ewx2H_a-12" value="Batterie Arduino" style="whiteSpace=wrap;html=1;" vertex="1" parent="1">
          <mxGeometry x="40" y="495" width="70" height="30" as="geometry" />
        </mxCell>
        <mxCell id="kkkMn9H4NbqY7ewx2H_a-13" value="Batterie moteur" style="whiteSpace=wrap;html=1;" vertex="1" parent="1">
          <mxGeometry x="170" y="570" width="70" height="30" as="geometry" />
        </mxCell>
        <mxCell id="kkkMn9H4NbqY7ewx2H_a-14" value="Centrale inertielle&lt;span style=&quot;color: rgba(0, 0, 0, 0); font-family: monospace; font-size: 0px; text-align: start; text-wrap: nowrap;&quot;&gt;%3CmxGraphModel%3E%3Croot%3E%3CmxCell%20id%3D%220%22%2F%3E%3CmxCell%20id%3D%221%22%20parent%3D%220%22%2F%3E%3CmxCell%20id%3D%222%22%20value%3D%22Suspensions%22%20style%3D%22whiteSpace%3Dwrap%3Bhtml%3D1%3B%22%20vertex%3D%221%22%20parent%3D%221%22%3E%3CmxGeometry%20x%3D%22450%22%20y%3D%22700%22%20width%3D%2270%22%20height%3D%2230%22%20as%3D%22geometry%22%2F%3E%3C%2FmxCell%3E%3C%2Froot%3E%3C%2FmxGraphModel%3E&lt;/span&gt;" style="whiteSpace=wrap;html=1;" vertex="1" parent="1">
          <mxGeometry x="700" y="495" width="70" height="30" as="geometry" />
        </mxCell>
        <mxCell id="kkkMn9H4NbqY7ewx2H_a-15" value="Capteurs de vitesse de rotation" style="whiteSpace=wrap;html=1;" vertex="1" parent="1">
          <mxGeometry x="560" y="570" width="70" height="40" as="geometry" />
        </mxCell>
        <mxCell id="kkkMn9H4NbqY7ewx2H_a-16" value="Wifi" style="whiteSpace=wrap;html=1;" vertex="1" parent="1">
          <mxGeometry x="444" y="200" width="70" height="30" as="geometry" />
        </mxCell>
        <mxCell id="kkkMn9H4NbqY7ewx2H_a-17" value="Arduino" style="whiteSpace=wrap;html=1;" vertex="1" parent="1">
          <mxGeometry x="570" y="282.5" width="70" height="30" as="geometry" />
        </mxCell>
        <mxCell id="kkkMn9H4NbqY7ewx2H_a-18" value="Matlab&lt;span style=&quot;background-color: initial;&quot;&gt;/&lt;/span&gt;&lt;div&gt;&lt;span style=&quot;background-color: initial;&quot;&gt;Simulink&lt;/span&gt;&lt;/div&gt;" style="whiteSpace=wrap;html=1;" vertex="1" parent="1">
          <mxGeometry x="40" y="370" width="70" height="30" as="geometry" />
        </mxCell>
        <mxCell id="kkkMn9H4NbqY7ewx2H_a-31" style="edgeStyle=orthogonalEdgeStyle;rounded=0;orthogonalLoop=1;jettySize=auto;html=1;entryX=0.5;entryY=1;entryDx=0;entryDy=0;" edge="1" parent="1" source="kkkMn9H4NbqY7ewx2H_a-20" target="kkkMn9H4NbqY7ewx2H_a-21">
          <mxGeometry relative="1" as="geometry" />
        </mxCell>
        <mxCell id="kkkMn9H4NbqY7ewx2H_a-20" value="&lt;span style=&quot;font-size: 11px;&quot;&gt;Pouvoir tester différents cas d&#39;utilisation&lt;/span&gt;" style="ellipse;whiteSpace=wrap;html=1;fillColor=#dae8fc;strokeColor=#6c8ebf;" vertex="1" parent="1">
          <mxGeometry x="270" y="257.5" width="130" height="80" as="geometry" />
        </mxCell>
        <mxCell id="kkkMn9H4NbqY7ewx2H_a-21" value="Servo de direction" style="whiteSpace=wrap;html=1;" vertex="1" parent="1">
          <mxGeometry x="300" y="200" width="70" height="30" as="geometry" />
        </mxCell>
        <mxCell id="kkkMn9H4NbqY7ewx2H_a-22" value="Modèle" style="whiteSpace=wrap;html=1;" vertex="1" parent="1">
          <mxGeometry x="170" y="285" width="70" height="30" as="geometry" />
        </mxCell>
        <mxCell id="kkkMn9H4NbqY7ewx2H_a-23" value="Transmission" style="whiteSpace=wrap;html=1;" vertex="1" parent="1">
          <mxGeometry x="710" y="425" width="70" height="30" as="geometry" />
        </mxCell>
        <mxCell id="kkkMn9H4NbqY7ewx2H_a-24" value="Châssis" style="whiteSpace=wrap;html=1;" vertex="1" parent="1">
          <mxGeometry x="310" y="690" width="70" height="30" as="geometry" />
        </mxCell>
        <mxCell id="kkkMn9H4NbqY7ewx2H_a-25" value="Placement du centre de gravité" style="whiteSpace=wrap;html=1;" vertex="1" parent="1">
          <mxGeometry x="430" y="690" width="80" height="50" as="geometry" />
        </mxCell>
        <mxCell id="kkkMn9H4NbqY7ewx2H_a-36" style="edgeStyle=orthogonalEdgeStyle;rounded=0;orthogonalLoop=1;jettySize=auto;html=1;entryX=0;entryY=0.5;entryDx=0;entryDy=0;" edge="1" parent="1" source="kkkMn9H4NbqY7ewx2H_a-26" target="kkkMn9H4NbqY7ewx2H_a-27">
          <mxGeometry relative="1" as="geometry" />
        </mxCell>
        <mxCell id="kkkMn9H4NbqY7ewx2H_a-57" style="edgeStyle=orthogonalEdgeStyle;rounded=0;orthogonalLoop=1;jettySize=auto;html=1;entryX=0;entryY=0.5;entryDx=0;entryDy=0;" edge="1" parent="1" source="kkkMn9H4NbqY7ewx2H_a-26" target="kkkMn9H4NbqY7ewx2H_a-23">
          <mxGeometry relative="1" as="geometry" />
        </mxCell>
        <mxCell id="kkkMn9H4NbqY7ewx2H_a-26" value="&lt;font style=&quot;font-size: 11px;&quot;&gt;Assurer la propulsion de la voiture&lt;/font&gt;" style="ellipse;whiteSpace=wrap;html=1;fillColor=#dae8fc;strokeColor=#6c8ebf;" vertex="1" parent="1">
          <mxGeometry x="540" y="345" width="130" height="80" as="geometry" />
        </mxCell>
        <mxCell id="kkkMn9H4NbqY7ewx2H_a-27" value="2 moteurs" style="whiteSpace=wrap;html=1;" vertex="1" parent="1">
          <mxGeometry x="710" y="315" width="70" height="30" as="geometry" />
        </mxCell>
      </root>
    </mxGraphModel>
  </diagram>
</mxfile>
